<svg width="46" height="46" viewBox="0 0 46 46" fill="none" xmlns="http://www.w3.org/2000/svg">
<circle cx="23" cy="23" r="23" fill="#FECC4C" fill-opacity="0.47"/>
<path fill-rule="evenodd" clip-rule="evenodd" d="M22.9995 9C19.6845 9 16.9995 11.685 16.9995 15C16.9995 18.315 19.6845 21 22.9995 21C26.3145 21 28.9995 18.315 28.9995 15C28.9995 11.685 26.3145 9 22.9995 9ZM26.1495 15C26.1495 13.26 24.7395 11.85 22.9995 11.85C21.2595 11.85 19.8495 13.26 19.8495 15C19.8495 16.74 21.2595 18.15 22.9995 18.15C24.7395 18.15 26.1495 16.74 26.1495 15ZM32.1495 28.5C32.1495 27.54 27.4545 25.35 22.9995 25.35C18.5445 25.35 13.8495 27.54 13.8495 28.5V30.15H32.1495V28.5ZM10.9995 28.5C10.9995 24.51 18.9945 22.5 22.9995 22.5C27.0045 22.5 34.9995 24.51 34.9995 28.5V33H10.9995V28.5Z" fill="#FFC32A"/>
</svg>
